<?xml version="1.0" encoding="UTF-8"?><svg id="Layer_1" xmlns="http://www.w3.org/2000/svg" viewBox="0 0 795.29 426.82"><defs><style>.cls-1{fill:#0d0b1e;}.cls-2{fill:#6ac194;}.cls-3{fill:#3c1e28;}.cls-4{fill:#1d4942;}.cls-5{fill:#121317;}.cls-6{fill:#373143;}.cls-7{fill:#237858;}.cls-8{fill:#897b48;}.cls-9{fill:#1e1721;}.cls-10{fill:#634138;}.cls-11{fill:#2b111c;}.cls-12{fill:#af6939;}.cls-13{fill:#1b0c16;}.cls-14{fill:#112027;}.cls-15{fill:#d1bf4f;}</style></defs><path class="cls-12" d="M106.51,201.69c.48,17.2.89,35.73.25,52.72-.19,1.98-.02,6.39-2.65,6.29-2.22-1.04-1.57-4.63-1.7-7.08.02-8.4,0-29.91.01-38.15-.12-1.7,1.03-.96,2.13-1.25.74-.12,1.24-1.24,1.23-2.16.08-2.13-.13-4.37-.03-6.54.1-2.11.4-4.49.73-3.91l.02.08Z"/><path class="cls-3" d="M132.31,255.35c0,.76.13,1.93.03,2.78-.06.96-.81,1.93-.85.8.22-2.49-.34-5.34.12-7.82,1.12.49.66,2.99.7,4.01v.23Z"/><path class="cls-13" d="M130.61,261.08l.83-.83c-.16.59-.17.7-.83.83Z"/><path class="cls-5" d="M174.82,278.6c-.12-.27-.69-.52-.83-.83l.83.83Z"/><path class="cls-15" d="M29.64,152.37c6.65,8.73,13.12,17.68,20.01,26.19,3.43,4.23,6.77,8.33,9.65,13,2.76,4.32,5.48,9.56,8.64,13.56,2.39,3.05,4.93.72,6.54-1.8,10.54-15.26,19.34-31.75,31.5-45.81,6.85-8.38,11.8-18.24,18.84-26.09,2.57-2.6,2.66.19,1.03,3.24-1.95,3.97-5.7,9.41-8.53,13.43-4.76,6.57-9.33,13.59-14.73,19.83-8.65,9.63-14.3,23.15-22.4,33.7-2.29,2.89-6.32,8.13-8.24,10.43-1.2,1.37-1.88,1.65-2.77.86-6.66-7.65-11.84-18.19-18.64-25.77-7.2-7.84-12.54-16.8-19.07-25.02-2.72-4.01-6.32-6.88-9.04-10.83-3.62-5.2-7.41-11.95-11.12-16.81-5.04-6.79-4.34.41-4.43,4.63-.13,3.32-.66,6.49-.8,9.85-.13,10.62.33,21.53-.08,32.1-.12,2.01-.44,4.52-1.45,6.12-3.56,4.67-2.76-6.68-3-8.41-.31-8.81-.61-17.73-.52-26.5.11-7.33-.38-14.91-.8-22.33-.05-4.95-.83-11.06.96-15.62.32-.41.69-.23,1.11.48,1.66,4.17,5.12,8.82,8.46,12.18,6.98,7.77,12.4,16.87,18.74,25.17l.16.21Z"/><path class="cls-15" d="M118.74,181.26c1.48,2.14.74,4.91.92,7.69,0,4.04,0,7.48,0,11.39-.42,8.57,1.35,17.74-1.93,25.94-.53,1.53-.62,1.31-.69-.16-.18-11.31.99-24.88.28-36.2-.11-2.89-1.17-5.99-4.2-6.91-2.06-.66-4.76-.87-5.93.11-1,.81-1.02,2.17-.98,3.39.56,6.1.31,12.53-.56,18.62-.14,1.37-.18,2.77-.16,4.15-.1,2.79.66,6-1.04,6.78-1.72.17-2.41-3-2.44-4.74-.09-8.23-.27-16.7-.11-24.94-.05-3.32.79-7.38,4.85-7.51,3.51.09,9.34-.34,11.89,2.23l.12.15Z"/><path class="cls-12" d="M104.75,181c-.37.57-1.17,1.81-1.53,2.35-.16.31-.13.1-.13-.3,0-.6-.03-1.21-.02-1.81.03-.4.61-.18.97-.25.22-.01.54,0,.65,0l.06.02Z"/><path class="cls-15" d="M132.34,117.41c.59.59.74,2.17.7,3.24-.09,2.96-.2,5.91-.25,8.73-.25,24.28-1.06,49.91-1.61,74.34-.21.31-.5-1.38-.57-3.54-.12-1.21.29-7.42-.3-5.98-.34.93-.77,4.18-1.21,5.25-.08.16-.15.17-.2-.02-1.05-19.23-.97-38.84-.94-58.03.45-3.89-2.16-26.4,4.28-24.09l.1.1Z"/><path class="cls-12" d="M131.79,203.74c1.33,17.3.14,35.4.22,52.72.04,4.86-5.21,3.67-8.7,3.56-1.96-.17-3.91.08-5.48-.45-.67-.32-.77-.98-.81-1.71-.05-4.47,0-18.05-.02-24.52-.68-2,2.73-17.72,3.33-9.24.06,7.6,0,15.37,0,23,.12,2.47-.36,6.17.48,7.92,1.24,2.15,5.41,1.47,7.31,1.49.51-.03,1.22-.17,1.29-.64-.18-7.55-2.79-54.39-2.97-60.41.09-1.45,3.48-4.82,4.33-3.73.57.94.34,2.31.38,3.43-.11,2.86.19,5.78.58,8.34l.03.25Z"/><polygon class="cls-12" points="117.01 221.88 116.19 221.47 117.01 221.05 117.01 221.88"/><path class="cls-12" d="M28.07,183.22c.27.11.31.3.33.57-.19,16.87-.72,71.8-.85,75.67-.35.82-1.39.36-2.9.5-3.55,0-10.79,0-15.66,0-2.8-.02-4.58.18-5.2-.84-.52-.68-.51-2.48-.52-3.67.02-5.56.09-11.17.02-16.76-.15-15.2-.46-28.94-.73-44.22-.15-3.16,1.67-5.51,3.05-8.19.52-1.03.74-2.28,1.48-3.15.67-.73,1.72-.75,2.7-.74,4.48.23,13.67.36,18.23.8l.06.02ZM13.67,183.94c-1.24.24-2.49.53-3.73.61-2.17,0-1.43,1.8-1.61,3.66-.38,16-1.37,58.67-1.56,67.11-.08.66.34,1.01,1.02,1.07,2.64.29,7.59.49,7.24-3.71-.22-15.71-1.18-31.43-.89-47.23.1-1.69.12-4.84.79-6.06.54,4.27.02,14.8.24,16.79.04.66.15.08.39-1.49.53-3.12,1.25-9.3,1.94-12.47.19.23.07,2.34.09,3.16-.18,15.12.23,30.36.13,45.51-.3,3.39,1.35,6.38,5.11,5.27,1.56-.41,1.79-1.88,1.68-3.73-.9-15.37,1.76-56.67-.96-67.26-.59-.56-1.57-.7-2.38-.59-1.4.17-2.82,1.62-3.12,1.83-.09.06-.16.07-.24-.01-.74-1.29-1.39-3.17-3.92-2.49l-.19.03Z"/><path class="cls-10" d="M7.19,167.46c-.1,3.11.19,6.61-.12,9.7-.41,2.77-.76.4-.69-.84.13-9.75-.19-19.69-.11-29.41.05-.77.12-2.32.52-2.63.04,0,.09.02.13.1.3.43.28,2.62.27,4.37,0,6.06.06,12.48,0,18.44v.27Z"/><path class="cls-9" d="M103.92,166c.28-.27.54-.58.83-.83-.23.32-.55.57-.83.83Z"/><path class="cls-15" d="M14.51,184.62c.67-2.13,3.12-.45,3.24,1.3.33,4.23-.2,8.57.12,12.88.03,4.69-1.72,11.77-2.42,16.87-.33,1.83-.49,3.43-.47.71.02-5.98-.06-13.43.03-18.47.14-3.54.31-7.71-.4-11.07-.12-.67-.24-1.41-.13-2.04l.04-.18Z"/><path class="cls-2" d="M86.49,156.1c4.18-6.37,9.77-11.79,14.08-18.1,5.08-7.1,9.09-15.04,15.32-21.37,1.12-1.09,2.41-2.16,3.81-2.74,2.71-1.26,5.51.88,6.09,3.6.75,3.52-2.47,5.32-4.54,7.7-6.69,7.67-14.1,14.89-19.34,23.66-3.82,5.5-9.39,9.64-13.51,15.05-2.18,2.85-4.01,6.04-6.6,8.51-1.98,2-4.29,3.11-6.43,4.92-1.58,1.36-3.1,3.7-4.29,4.81-2.28,1.9-2.81-1.5-1.45-2.93,3.89-5.56,12.93-16.13,16.74-22.92l.12-.2Z"/><path class="cls-2" d="M53.29,158.12c-1.23,1.32-5.26-.65-6.77-1.74-2.22-1.47-4.91-3.68-6.84-5.73-2.18-2.55-3.26-5.85-5.51-8.24-3.75-4.22-13-14.12-17.95-20.23-1.31-1.79-2.55-2.78-1.69-3.78.85-.87,4.74-1.36,7.18-.4,2.26.84,3.73,2.68,5.29,4.45,8.48,10.02,16.96,21.99,25.13,32.76.58.76,1.58,2.11,1.23,2.82l-.05.1Z"/><path class="cls-15" d="M47.16,156.98c.17-.33.27-.26.55-.31,2.23.29,4.96,1.11,6.95,2.43,1.74,1.31,3.02,3.13,4.32,4.86,4.39,5.72,7.74,12.2,11.24,18.33,1.71,1.7,3.2-2.23,5.27-4.21.49-.54,1.01-1.08,1.53-1.55,2.49-2.26,1.99-.59.69,1.47-2.13,3.1-6.08,11.47-9.88,5.85-4.89-6.04-10.14-13.64-15.59-18.81-2.08-2.1-4.99-4.95-5.11-7.97l.03-.1Z"/><path class="cls-5" d="M462.58,307.79c-.43-.14-.7-.79-.83-.83l.83.83Z"/><path class="cls-15" d="M740.9,123.85c19.28,11.63,38.38,22.03,53.72,39.36,1.44,1.66.3,1.07-1.04.18-8.97-6.7-16.81-14.77-26.44-21.05-7.16-5.1-14.84-9.23-22.55-13.32-1.41-.83-3.07-1.85-4.25-3.09-.87-.78-1.62-2.73.38-2.14l.18.05Z"/><path class="cls-15" d="M792.9,173.98c-.29.26-.84-.36-1.13-.63-2.58-3.38-6.31-6.74-8.87-10.11,4.74,1.85,7.36,6.2,10.01,10.64v.1Z"/><path class="cls-15" d="M719.86,115.66c4.19,2.41,6.62,3.19,11.39,6.19,4.19,2.82,8.52,4.93,12.68,7.7,5.58,4.8,11.07,9.43,17.17,13.83,6.94,5.19,13.97,10.43,19.79,16.44,1.79,1.79,3.6,4.12-.68,1.36-11.86-7.6-22.46-18.14-33.67-26.81-15.87-12.61-35.61-20.06-53.92-29.28-2.44-.92-9.38-6.57-3.12-4.81,9.84,3.85,20.25,10.34,30.13,15.25l.22.12Z"/><path class="cls-15" d="M787,236.49c-3.19,14.87-7.48,23.66-23.93,37.21-6.79,5.5-13.68,10.52-21.53,14.18-1.24.5-3.14.52-1.47-1.13,11.99-8.52,33.18-26.79,38.66-38.71.8-1.95,2.17-3.59,3.39-5.44.9-.72,4.83-11.85,4.89-6.32l-.02.21Z"/><path class="cls-12" d="M765.52,229.8c-.11,3.3-1.98,7.26-3.07,10.33-1.77,4.07-4.93,7.89-7.77,11.13-7.09,7.57-14.53,13.88-24.01,18.08-2.6.7-2-.97-.72-1.95,4.37-3.24,9.6-5.65,13.72-9.39,2.32-1.97,4.29-4.48,6.28-6.06,1.59-1.32,3.13-2.44,4.47-4.09,3.71-4.35,7.32-11.26,9.5-16.3.27-.66,1.42-2.82,1.58-1.85l.02.1Z"/><path class="cls-12" d="M686.18,98.47c-1.1-.55-3.83-1.53-5.02-1.66.45.89,1.9,1.88,2.79,2.68.48.36.7.61,1.14.71.91.28,1.53-.89,1.16-1.62l-.07-.1Z"/><path class="cls-10" d="M625.07,241.17c2.82,2.85,5.81,6.2,7.48,10.01.24.66.72,2.16-.56,1.42-2.73-2.17-4.39-5.49-6.36-8.59-.36-.81-1.98-2.39-.71-2.86h.14Z"/><path class="cls-10" d="M759.75,258.38c1.19.31-1.02,2.21-1.51,2.68-5.81,5.12-11.59,10.41-18.33,14.23-.53.28-1.5.78-1.89.57-.36-.96,1.79-2.49,2.5-3.24,3.93-3.51,9.57-8.47,13.31-11.38,1.69-1.15,3.87-2.48,5.78-2.86h.14Z"/><path class="cls-11" d="M757.01,247.76c.12-.2,3.94-5.56,4.14-5.82-.95,2.18-2.43,3.81-4.07,5.74l-.07.08Z"/><path class="cls-15" d="M772.89,163.28c-.17.75-1.67-.48-2.14-.86-6.16-5.8-14.06-9.8-18.48-15.64-.84-1.38.78-.52,1.41-.09,6.79,4.29,11.76,8.68,17.66,14.42.57.53,1.41,1.47,1.54,2.05l.02.11Z"/><path class="cls-12" d="M772.46,162.53c.49.09,1.11.61,1.52,1.03,4.01,3.93,7.6,7.46,10.8,12.15.28.45.98,1.82.22,1.8-.53-.1-1.45-1.23-2.1-1.54-.78-.41-1.49-.29-2.05-.98-1.73-1.97-5.48-7.5-8.23-10.77-.36-.43-1.04-1.65-.3-1.72h.14Z"/><path class="cls-15" d="M760.38,131.06c4.01,1.17,8.61,2.2,12.25,4.82,1.02,1.48-1.3,1.1-2.27.37-3.1-1.92-7.84-2.32-10.02-5.15l.04-.05Z"/><path class="cls-15" d="M686.25,98.58c.42.88-.41,2.02-1.36,1.56-1.16-.77-3.07-2.25-3.72-3.32,1.19.13,3.91,1.11,5.02,1.66l.07.1Z"/><path class="cls-12" d="M550.72,193.18c.41.53.58,1.79,1.19,2.27.65.3,1.28-2.98,1.56-3.59.12-.06.1.17.14.3.05,1.26,0,2.41.02,3.81-.02,14.49.04,58.85-.03,63.56-.24,1.01-1.23.58-2.8.72-3.05,0-9.25,0-13.35,0-2.83-.02-4.31.1-4.71-.46-.54-1.04-.17-2.53-.28-5.32,0-6.35,0-17.09,0-23.57.06-2.66-.22-5.13.48-7.34.69-2.68,2.44-1.42,2.75-3.5.32-5.82-.45-12.06.22-17.75.53-4.41.77-1.36.81.79.11,16.25-.48,32.69-.36,48.92-.1,5.21,4.03,5.03,8.66,4.9,1-.02,2.09-.12,3-.51,1.86-.73,2.32-2.83,2.37-4.74.49-19.35-.58-39.23.3-58.5h.03Z"/><path class="cls-15" d="M494.1,136.97c2.99,1.9,4.93,5.1,7.2,7.76,3.73,4.71,6.86,8.98,10.28,13.99,6.67,10.27,13.87,19.01,21.32,27.86,5.95,6.4,3.05,14.93,3.15,22.72-.04,3.81.32,7.97.09,11.71-.19,1.57-.77,1.03-1.59,1.48-.63.22-1.19,1.17-1.44,1.25-.1-.58.17-1.53.19-2.24.43-4.7-1.06-9.34-.47-14.19.98-5.82,1.01-12.02-2.25-17.25-8.95-13.67-21.45-26.7-31.46-39.97-2.78-3.85-7.25-8.27-9.17-12.36-.47-1.68,1.69-2.16,3.91-.9l.21.12Z"/><path class="cls-15" d="M597.04,128.83c4.18-2.4,2.59,3.77,1.15,5.74-8.28,12.31-19.76,24.56-28.64,35.97-2.51,2.97-4.38,6.42-6.79,9.47-2.98,3.57-6.49,7.03-9.05,10.65-.97,1.39-1.5,3.23-2.02,4.66-.34.91-.62,1.51-.88,1.47-1.04-.61-1.76-5.95-.19-7.59,9.03-9.75,16.82-22.78,24.63-33.57,4.7-6.21,10.83-13.19,16.06-19.62,1.93-2.41,3.2-5.21,5.55-7.07l.17-.12Z"/><path class="cls-12" d="M610.11,166.58c-11.53,30.51-5.85,45.77,12.71,71.22.66.99,2.48,3.71,1.89,4.2-1.91-.22-4.05-2.98-5.51-4.35-4.33-5.09-8.88-10.32-12.23-16.2-6.45-14.71-7.3-28.11-4.61-43.67.42-4.47,2.61-8.02,6.11-10.81.94-.78,1.55-1.12,1.63-.52v.12Z"/><path class="cls-12" d="M532.52,204.38c-.16-2.25-.06-7.69-.03-9.99.84,2.94,1.74,7.05.09,9.92l-.05.07Z"/><path class="cls-12" d="M532.5,221.91c-.11-1.05,0-3.74-.04-5.13.04-1.33-.09-2.53.09-2.35,1.32,1.8,1.27,5.67,0,7.44l-.05.05Z"/><path class="cls-15" d="M683.91,129.02c1.54.22,4.26,1.61,2.23,2.35-1.08.48-3.25.4-4.7.23-27.76-2.59-55.75,12.84-71.56,35.24-1.09,1.41-3.89,4.14-4.65,3.66,8.87-29.46,49.31-47.58,78.44-41.54l.24.05Z"/><path class="cls-10" d="M737.09,229.65c-.98,6.71-5.04,12.69-9.24,17.91-.82.95-2.03,2.07-3.07,2.56-.58.26-1.03.22-1.1-.06.11-1.36,1.79-2.42,2.49-3.72.82-1.29,1.62-2.56,2.6-3.76,2.72-3.42,4.2-8.1,6.82-11.63.53-1,1.26-3.68,1.5-1.52v.21Z"/><path class="cls-1" d="M723.6,248.57c.47-1.23,2.16-2.82,3.34-3.3-.47,1.2-2.08,2.77-3.29,3.33l-.05-.04Z"/><path class="cls-12" d="M686.48,129.99c1.01-.34,2.7-.12,3.91.25,11.58,3.17,21.94,9.49,30.98,17.21,4.99,4.12,9.45,7.83,13.72,12.23,2.11,2.05,3.34,3.35,4.94,6.19,2.71,4.57,7.18,11.94,9.97,16.71,3.23,6.82,5.32,14.95,6.71,22.17.3,1.93,1.15,5.27.5,6.8-.33.08-.8-1.76-1.21-3.92-.7-3.55-1.34-5.92-3.05-8.65-2.37-5.65-3.44-12.04-6.08-17.67-2.77-5.97-7.25-11.33-10.89-16.75-4.02-5.33-8.92-9.02-14.43-13.01-4.83-3.49-8.34-7.09-13.32-10.02-4.97-3.19-9.18-5.52-14.2-7.29-1.54-.81-10.7-2.29-7.68-4.2l.15-.05Z"/><path class="cls-12" d="M697.93,123.18c18.74,9.69,52.4,34.2,60.47,53.26,1.4,3.89-.91,1.22-1.9-.39-3.22-5.19-6.32-10.26-10.96-14.14-4.84-4.32-8.23-9.56-13.73-13.16-7.85-5.66-16.27-11.33-24.02-16.92-3.75-2.75-8.14-4.56-11.98-7.21-3.57-2.91-2.05-3.8,1.9-1.55l.22.11Z"/><path class="cls-15" d="M732.07,137.78c8.34,7.48,18.87,13.47,25.79,22.35,1.09,1.33,7.23,9.91,2,5.22-8.19-7.75-16.13-18.38-27.01-23.66-12.09-9.27-25.19-17.2-38.53-24.55-3.81-2.97.41-2.12,2.24-.9,12.1,6.86,23.92,13.46,35.3,21.37l.21.16Z"/><path class="cls-15" d="M762.01,167.67c-.12-.2.13-.64,0-.83.18.13.64-.13.83,0l-.83.83Z"/><path class="cls-8" d="M692.42,122.7c4.81,2.58,4.89,4.16.2,2.15-19.79-7.86-40.47-13.84-59.16-24.83-1.54-1.02-2.01-2.02.4-1.52,19.92,7.13,37.97,16.56,58.32,24.08l.24.12Z"/><path class="cls-15" d="M507.53,118.2c1.84,1.35,3.59,3.8,5.07,5.77,8.32,11.86,17.41,23.48,25.82,35.42,1.64,1.94,2.71,5.89,5.35,6.31.89,0,1.99-1.24,2.62-2.15,1.51-2.15,2.91-4.74,4.35-6.86,2.55-3.76,5.34-7.34,8.01-11.07,5.28-7.15,10.89-15.16,17.42-21.35,1.48-1.34,3.06-2.58,4.96-2.97,2.1-.47,3.41,1.11,3.64,3.48,1.06,10.11-6.14,15.78-11.21,23.35-1.94,3.33-4.24,6.37-6.9,9.13-2.91,3.15-6.19,8.01-9.31,11.57-1.57,1.63-2.88,1.99-1.75-.39,5.81-8.59,12.25-17,17.87-25.67,2.96-4.65,7.35-9.06,9.2-14.29,1.27-5.21-4.97,4.12-5.59,5.02-1.88,2.71-3.79,5.25-5.91,7.76-7.6,8.98-15.93,17.53-23.05,27.02-1.06,1.39-2.59,3.07-4.3,2.76-.95-.14-1.94-.85-2.97-1.78-3.91-3.71-8.92-8.88-12.75-12.98-3.45-3.5-5.24-7.77-8.47-11.62-5.37-6.56-10.02-13.24-15.6-19.3-2.16-2.26-.44-6.81,1.71-7.59.59-.19,1.11,0,1.64.33l.15.1Z"/><path class="cls-10" d="M630.37,97.6v.83c.54-.28.54-.56,0-.83ZM677.85,121.83c-.99-.42-2.84-.54-4.02-.76-.5-.07-.93-.16-1.02.05-.09,1.15,2,2,3.1,2.12,1.74.27,3-.26,2.05-1.31l-.11-.1Z"/><path class="cls-10" d="M693.93,121.8s.07,1.68-.06,1.64c-.56-.33-1.32-.88-1.92-1.24-.18-.13-.55-.34-.53-.37.49.04,1.87-.19,2.44-.07l.07.04Z"/><path class="cls-11" d="M536.81,256.08c-.62-.14-.71-.19-.83-.83l.83.83Z"/><path class="cls-12" d="M535.97,194.36c0-.06-.68-.13-.83-.83l.83.83Z"/><path class="cls-12" d="M684.44,130.13l-1.67-.83c1.2.21,1.58.82,1.67.83Z"/><path class="cls-15" d="M505.29,133.09c11.2,9.56,18.07,22.7,27.04,34.19,1.33,2.06,6.8,7.7,4.91,9.75-.43.11-.57-.03-.96-.17-2.42-1.48-4.45-4.15-6.43-6.23-8.03-9.53-15.89-21-23.85-30.89-1.83-2.8-4.17-5.07-6.42-7.46-.92-.98-2.97-3.97-1.59-4.59.91-.23,2.97,1.95,4.74,3.3.8.64,1.61,1.29,2.37,1.94l.18.16Z"/><path class="cls-2" d="M502.45,123.62c.24.17.39.71.78,1.16.52.54.92.98.82,1.72-.58,2.11.51,4.33,1.55,6.13.4.71.35,1.17-.57.77-2.25-.95-4.27-3.41-6.04-5.01-.26-.29-.56-.63-.63-1.03-.34-1.7,2.61-3.53,3.97-3.81l.11.06Z"/><path class="cls-8" d="M716.8,141.11c-1.56.04-3.92-1.64-5.48-2.41-6.99-4.13-11.91-6.86-19.41-9.78-3.15-1.44-6.89-1.75-9.94-3.23-1.79-1.02-2.03-2.4.18-1.94,5.93,1.75,11.45,4.96,17.51,6.3,6.01.72,10.66,4.67,15.26,8.76.58.54,2.06,1.86,1.92,2.26l-.03.04Z"/><path class="cls-3" d="M745.36,161.86c.08.07-1.71-1.69-1.67-1.67.44.39,1.21,1.23,1.63,1.63l.04.04Z"/><path class="cls-3" d="M756.93,207.74c-.89-.4-.82-1.67-.68-2.5.94.15.73,1.82.76,2.46l-.08.04Z"/><path class="cls-12" d="M555.07,170.1c-1.31,2.12-4.07,6.13-5.82,7.49-.4.3-1.02.43-1.42.08-1.04-1.96,1.88-3.4,2.81-4.96,1.25-1.07,2.6-4.68,4.4-2.73l.03.12Z"/><path class="cls-3" d="M585.18,112.62l-.83-.83c.44.22.66.75.83.83Z"/><path class="cls-8" d="M677.96,121.93c1,1.19-.59,1.5-1.73,1.35-1.36-.12-2.99-.79-3.39-1.82-.15-.62.3-.48,1-.38,1.18.22,3.03.34,4.02.76l.11.1Z"/><path class="cls-8" d="M630.37,97.6c.54.28.54.56,0,.83v-.83Z"/><path class="cls-15" d="M197.7,297.94c9.26,8.79,18.7,17.81,28.01,26.63,7.75,7.72,15.8,16.38,24.05,22.62,23.24,24.01,47.59,49.38,72.42,71.6,2.72,2.67,3.66,1.95,6.25-.75,22.92-26.47,49.08-50.65,75.11-74.04,4.69-3.59,8.41-7.47,12.92-11.24,3.29-2.67,9.61-7.78,13.35-10.82,3.75-3.14,7.85-5.32,11.19-9,3.32-3.67,6.98-6.23,10.38-9.17,1.06-.91,2.26-1.74,3.57-2.18,2.65-.99,3.07.54,1.03,2.47-2.09,1.98-4.22,3.95-6.3,5.75-42.14,35.07-88.65,73.15-123.71,115.67-2.09,1.93-2.2,1.46-3.22.44l-9.72-9.85c-17.44-17.64-38.31-38.92-55.27-55.89-25.44-24.96-53.69-47.68-77.5-74.21-1.03-.96-2.61-3.28-2.34-4.07.87-.59,2.4.95,3.23,1.56,5.45,4.79,11.48,9.7,16.37,14.3l.18.17Z"/><path class="cls-15" d="M451.46,241.97c4.55.54-9.43,10.59-10.48,11.8-32.81,27.35-66.87,54.23-98.33,83.42-2.48,2.37-4.7,5.33-7.23,7.86-2.48,2.51-4.17,2.62-6.98.11-6.35-5.24-13.69-13.07-20.07-18.51-12.15-10.52-25.24-20.7-36.59-31.96-3.16-3.13-6.29-6.43-9-9.98-1.21-1.54-7.57-10.35-2.09-6.15,4.91,3.79,8.66,8.83,13.12,13.24,2.8,3.01,5.8,4.85,8.98,7.43,9.22,8.29,18,17.3,28.02,24.67,5.17,4.86,12.37,12.13,17.4,16.22,3.04,2.65,4.68,2.62,7.55.17,29.09-28.06,61.51-52.89,91.32-80.07,6.83-5.26,13.04-11.53,20.27-16.32,1.4-1.01,2.97-1.84,3.99-1.92h.15Z"/><path class="cls-12" d="M248.76,218.22c.79.78.88,2.46.87,3.72-.18,4.25.79,7.17,4.25,10.29,1.69,1.81,3.21,3.89,4.02,6.25,1.1,3.09.73,5.68,1.9,8.1.3.84.92,1.76.75,2.59-.09.17-.23.23-.44.24-.91.08-3.53-1.2-5.59-1.91-8.22-2.89-12.31,4.23-14.44,11.05-.31.77-.86,1.81-1.76,1.64-9.35,0-74.05,0-90.52,0-1.49-.04-2.15.33-2.32-1.36-.09-2.43.22-5.15.66-7.55,1.62-5.94,1.69,2.82,2.52,4.24,7.25,1.63,75.32.06,85.5.59,1.28.12,2.42-.88,3.08-1.98,2.7-5.05,3.7-10.87,10.66-11.11,5.92-.48,8.37-4.68,3.62-9.37-1.71-1.79-4.59-2.59-5.17-5.19-.38-2.08-.84-11.25,2.32-10.3l.1.08Z"/><path class="cls-15" d="M208.3,279.58c29.12,23.84,56.58,50.34,84.36,76.37,8.3,8.05,20.37,17.08,27.38,25.39,1.59,1.72,4.42,6.4,3.31,7.94-.38.27-1.2-.29-2.19-1.29-1.74-1.78-3.31-3.8-5.08-5.54-35.37-35.9-75.28-65.98-109.94-101.83-3.11-3.06-1.78-4.16,1.97-1.21l.19.16Z"/><path class="cls-4" d="M294.34,272.33c18.2,18.15,42.72,18.62,66.92,15.41,5.21-.76,10.41-.71,15.6-1.83,4.59-1.01,9.53-3.47,13.77-4.75,1.67-.62,4.77-.51,2.5,1.4-2.99,2.39-7.09,3.75-10.35,5.35-2.98,1.58-6.28,1.8-9.6,1.78-4.15.28-8.59.97-12.79,1.09-12.16.46-29.05.91-39.16-.9-5.68-1.35-12.03-4.24-17.48-6.96-7.73-5.12-14.53-12-19.78-20.25-1.02-1.54-2.07-3.13-2.77-4.71-1.09-2.23-1.24-5.53-.63-5.59.93.36,1.31,2.2,1.83,3.16,2.55,6.34,7.36,12.18,11.75,16.61l.18.18Z"/><path class="cls-7" d="M301.87,284.56c4.2,3.32,9.41,5.97,14.03,8.97,1.79,1.32,4.14,2.48,4.2,3.58-4.02,2.4-19.97-10.92-24.19-13.3-3.22-2.07-6.87-4.17-9.24-7.2-2.54-3.71,2.2-.41,4.4,1,3.41,2.22,7.81,4.24,10.62,6.8l.18.15Z"/><path class="cls-8" d="M279.97,267.12c1.81,2.03,4.19,4.56,5.74,6.97.45.73.67,1.42.51,1.84-.34.84-1.7.16-2.3-.35-5.1-4.39-8.3-10.04-11.38-15.92-1-1.47-3.15-4.31-1.69-5.86.43-.11.79.48,1.06.88,1.83,3.45,5.37,9.12,7.91,12.27l.15.18Z"/><path class="cls-14" d="M320.14,296.96c2.65.71,5.04,1.72,7.72,2.78,1.95,1,3.6.85,3.4,2.82-2.09,3.84-10.73-4.01-13.41-4.48-2.59-1.05.59-1.44,2.05-1.16l.23.04Z"/><path class="cls-8" d="M172.94,276.65c-.63-.61-1.37-2.88.29-2.09,2.15,1.61,4.38,4.63,5.72,6.81.06.45-.24,1.15-.56,1.32-.7.16-1.16-1.14-1.76-1.63-.45-.55-1.11-.98-1.48-1.46-.53-.97-1.28-2.04-2.06-2.78l-.14-.18Z"/><path class="cls-13" d="M285.65,276.04c1.26.91,3.08,3.04,4.23,4.03.13.28-1.4-.75-1.7-.86-.85-.39-6.52-3.72-2.68-3.23l.15.06Z"/><path class="cls-13" d="M270.74,257.75c-.01-.06-.75-.29-.83-.83l.83.83Z"/><path class="cls-13" d="M279.91,271.93c-.29-.26-.54-.59-.83-.83l.83.83Z"/><path class="cls-13" d="M282.41,274.43c-.28-.28-.56-.55-.83-.83l.83.83Z"/><path class="cls-13" d="M293.2,282.74c-.45-.29-1.17-1.08-1.47-1.48-.15-.18-.21-.22.07.06.4.4,1.02,1.02,1.47,1.47l-.07-.04Z"/><path class="cls-15" d="M478.56,250.67c.42,0,.37.03.54.09.38.25.39.63.3,1.15-1.72,4.88-7.71,7.96-11.82,11.08-47.9,38.88-92.78,83.16-140.67,121.98-.36-.14,1.57-2.92,2.4-3.86,4.83-5.78,10.24-11.02,15.68-16.23,10.77-10.19,22.2-19.69,33.55-29.23,27.34-22.97,53.2-47.85,80.86-70.21,5.07-4.04,9.65-7.95,14.67-12.11,1.2-.99,3.15-2.45,4.37-2.64l.13-.02Z"/><path class="cls-15" d="M249.93,292.99c14.44,13.28,28.53,27.38,43.15,40.6,9.47,8.48,21.34,17.64,30.58,27.21,1.63,1.73,9.96,10.33,7.35,11.56-.57-.04-1.61-.76-2.65-1.7-4.57-4.29-8.79-9.07-13.36-13.41-26.28-24.5-54.07-47.66-79.35-73.23-.75-.73-2.55-2.68-2.03-3.16,1.55-.33,3.27,1.25,4.61,2.1,3.82,2.9,8.01,6.65,11.52,9.85l.18.17Z"/><path class="cls-7" d="M339.83,369.5c-3.85,4.54-8.81,8.72-12.11,13.76-.86,1.59-.71,3.05-1.85,4.42-.91,1.09-2.27,2.08-3.02,1.71-.8-.28-1.48-2.27-1.34-3.11.12-.97,1.36-.94,2.5-1.92.31-.27.59-.62.86-1,1.93-3.22,4.68-5.61,7.06-8.03,2.08-2.22,4.93-4.91,7.89-5.88l.02.03Z"/><path class="cls-12" d="M457.51,167.08c3.15,2.5,2.36,6.28,2.49,10.78.2,7-.61,13.77.99,20.64,1.05,2.46,1.12,4.99.53,7.58.03,6.14.12,16.55.07,22.05.21,8.38.3,10.62-8.54,13.65-1.83.52-3.78.3-2.58-1.83,2.54-3.16,6.51-5.36,6.36-9.81.28-19.88,0-40.06-.02-59.89.02-.91-.08-3.04.61-3.17h.08Z"/><path class="cls-15" d="M155.55,110.12c6.89.22,15.58-.11,22.57.62,3.35.48,5.79,3.01,9.21,3.11,5.37.32,12.96-.35,18.7-.31,5.36.34,1.63,2.14-1.06,2.27-16.12.82-32.4-.04-48.54.23-2.99-.1-5.29,1.3-5.15,4.55-.98,43.95-1.31,88.18-1.68,132.2-.54,6.15-.65-.84-1.66-2.2-.46-.5-1.23,2.37-1.44,2.76-1.22-30.19-.45-61.58-.7-93.29.07-10.99-.51-20.9-.64-31.82-.32-3.28-.76-6.57-.64-9.79.13-2.43-.49-5.04,1.08-6.96,2.06-2,6.62-1.24,9.7-1.37h.24Z"/><path class="cls-10" d="M146.94,215.58c-.37-21.34-.91-43.28-.82-64.7,0-1.11,0-1.65,0-1.52.09,7.39.76,60.4.82,66.33v-.11Z"/><path class="cls-4" d="M393.62,272.21c1.69.29-2.01,2.22-2.63,2.48-21.78,11.12-48.15,10.97-71.46,4.21-1.37-.59-.95-1.1,1.05-1,4.93.34,10.17,1.8,15.05,2.24,7.56.55,15.32.28,22.87.03,10.83-1.52,21.2-2.7,31.38-6.99,1.06-.42,2.7-.95,3.61-.97h.13Z"/><path class="cls-15" d="M436.85,219.5c.45,4.94-1.76,9.54-2.95,14.21-1,2.95-2.06,6.24-3.86,8.67-3.45,4.09-8.52,9.74-12.36,14.17-2.12,2.39-3.09,3.69-4.49,4.11-1.63.35-1.51-.9-.34-2.26,7.74-8.37,14.73-17.12,18.85-27.76,1.63-3.77,2.31-8.08,2.74-12.1.22-3.36,1.8-2.15,2.35.7l.05.26Z"/><path class="cls-10" d="M405.58,264.5c.68,2.11-4.66,4.21-5.96,5.27-1.93.91-4,2.76-6.31,3-.49-.02-.86-.2-.94-.43-.07-.19.05-.39.35-.57,1.92-1,4.28-2.17,6.25-3.33,2.14-1.22,4.12-2.5,5.95-3.81.24-.16.44-.23.57-.18l.09.05Z"/><path class="cls-8" d="M412.05,260.18c-.19,2.81-3.45,4.14-5.75,5.61-1.05.8-1.01-.35-.79-1.14,1.34-1.6,3.98-3.64,5.37-5.08.41-.32.92-.13,1.12.42l.05.19Z"/><path class="cls-11" d="M414.71,259.42v1.33c.1.39-.24.44-.59.2-.61-.64.09-1.25.52-1.52h.06Z"/><path class="cls-15" d="M247.66,180.67c.45.44.6,1.97.61,2.83.2,10.62,1.04,21.8.72,32.47.09,1.66-2.25,4.66-2.72,1.76.24-2.84-.28-6.14-.55-9.09-.13-6.61.05-13.32-.02-19.98.07-1.75-.12-7.87,1.88-8.04l.07.06Z"/><path class="cls-8" d="M266.17,221.02c1.75-1.03,1.34,2.55,1.37,3.55.12,5.61-.57,10.63.44,16.05.12,1.62.16,3.61.05,5.31-.09.46-.28.78-.53.85-.86.09-1.29-1.19-1.47-1.97-1.36-6.93-1.66-14.37-.79-21.38.08-.8.32-1.79.81-2.3l.12-.11Z"/><path class="cls-12" d="M269.97,247.73c.09,1.37.71,4.39.76,5.69-.12.57-.38,1.16-.75,1.6-.54.19-.98-1.22-1.35-1.78-.81-1.88-1.97-4.03-2-6.07.34-.45.98-.6,1.27-1.07.19-.32.2-.69.37-.89.95-.84,1.49,1.74,1.67,2.33l.04.2Z"/><path class="cls-14" d="M249.32,211.04c0-.28,0-.56,0-.83v.83Z"/><path class="cls-5" d="M299.93,276.95c-1.5-.75-2.91-2.07-4.11-3.33,1.51.44,3.55,1.78,4.17,3.29l-.06.04Z"/><path class="cls-5" d="M301.6,277.77c-.3-.25-.57-.55-.83-.83.35.14.63.52.83.83Z"/><path class="cls-14" d="M311.63,291.12c-1.36-.14-3.45-1.32-4.14-2.46,1.45-.2,3.12,1.6,4.17,2.41l-.03.04Z"/><path class="cls-14" d="M279.91,267.76c-.24-.29-.59-.51-.83-.83l.83.83Z"/><path class="cls-15" d="M464.1,76.1c2.06,5.39,1.1,13.52,1.14,19.15.06,5.18-1.27,10-1.71,15.19-1.2,19.49-.79,39.15-.99,58.69-.38,1.96,1.2,41.22-1.94,28.2-1.21-6.72-.59-14.53-.75-21.43-.02-4.54-2.02-8.96-1.76-13.65-.33-21.13,1.01-42.48-.58-63.5-.27-3.5-2.56-5.98-5.85-6.98-6.57-2.5-13.52-5.18-18.94-9.23-.87-.61-2.96-2.38-.73-1.92,5.26,1.66,10.11,2.02,15.78,4.15,2.94.8,6.79,4.25,9.7,2.28,2.59-4.55-4.23-12.49-6.33-16.66-1.86-2.74-2.08-6.84,2.55-4.57,3.89,2.1,8.39,6.34,10.32,10.08l.09.19Z"/><path class="cls-15" d="M462.3,204.45c.11.57.01,1.57.04,2.24-.01.34.06.75-.16.94-.34.31-1.05.08-1.32-.25-.99-1-.32-3.63,1.33-3.05l.11.12Z"/><path class="cls-10" d="M463.14,232.14c-.11-.02-.65.08-.8-.14,0-.27,0-1.18,0-1.45.05-.26.64.2.69.55.1.27.12.76.14.96l-.03.08Z"/><polygon class="cls-10" points="144.79 119.29 144.79 117.62 145.35 118.62 144.79 119.29"/><path class="cls-8" d="M151.41,125.96c0-.28,0-.54,0-.83v.83Z"/><path class="cls-15" d="M341.95,152.36c4.07,1.97,7.12,4.73,10.05,8.85,1.24,1.63,2.57,5.32-.92,3.87-1.96-.88-3.68-2.53-5.45-3.78-3.41-2.59-7.28-4.14-11.39-5.01-10.22-2.17-21.75.15-30.87,5.39-6.47,3.7-11.86,8.93-15.04,15.24-1.68,3.22-3.92,5.99-5.07,9.49-7.58,30.04,11.19,64.83,39.12,77.45,3.08,1.13,5.91,3.64.43,2.29-19.34-6.66-33.02-23.23-40.77-41.67-2.29-5.47-1.61-11.52-2.38-17.44-.36-2.88-1.42-5.3-1.79-8.23-.28-5.39-.25-11.04,1.35-16.33,2.14-6.49,6.45-11.78,10.72-17.07,12.41-14.67,33.9-20.49,51.77-13.15l.23.11Z"/><path class="cls-1" d="M362.5,279.43c-.76.19-2.46.61-3.13.78-.28.07-.24.06-.07.01.83-.28,2.22-.69,3.12-.79h.08Z"/><path class="cls-12" d="M434.57,158.56c1.46.57,3.22,3.9,3.09,5.91.43,16.71.95,36.76-.51,53.18-.07,2.51-.99,4.09-2.23.55-.55-1.67-.61-3.41-.52-5.15,1.01-17.52-.63-36.9.13-54.47l.04-.02Z"/><path class="cls-15" d="M378.24,56.79c.86-.63,1.4,1.41,1.91,1.86.79,1.15,1.52.99,2.08,2.14.58,1.63,1.02,5.44,2.83,7.16,4.77,5.57,11.3,9.88,16.35,15.33,11.78,10.34,24.29,21.25,32.65,34.63,1.16,1.53,2.19,2.4,2.57.36.18-8.32-.99-16.87-1.72-25.14-.11-2.09-.59-4.17.49-5.7.12-.07.11-.12.37-.09,1.12.6,1.25,2.08,1.65,3.98.58,3.53.84,8.44.98,12.13.22,8.3.47,16.82-.01,25.2-.68,4.69.22,9.01.07,13.62-.22,3.31-1.43,6.42-1.68,10.28-.28,2.66.29,5.95.28,8.02,0,1.62-.7,2.64-1.62.99-.91-1.67-.93-3.93-.97-6.28-.14-10.58,1.84-22.22-1-31.8-1.22-3.38-4.05-6.38-6.4-9.13-1.85-2.17-3.85-4.96-5.74-6.8-7.06-6.46-27.17-25.03-38.02-34.84-.66-.47-1.06-.22-1.42.84-2.17,8.88-2.93,18.29-3.87,27.43-.84,8.9-1.75,17.83-3.2,26.62-.3,1.05-.69,1.61-1.15,1.51-2.03-1.2-1.76-5.73-1.91-8.07.06-11.87,1.61-23.84,2.61-35.64.8-8.12,1.65-16,2.63-24.65.13-1.22.56-3.26,1.14-3.9l.08-.08Z"/><path class="cls-12" d="M365.03,178.3c3.27-16.57,2.72-33.84,6.1-50.39.2-.85.42-2.48,1.09-2.49.66.42,2.57,3.04,3.01,4.55.48,1.59.14,3.28,0,5.13-1.92,16.43-3.75,32.41-6.19,47.84-1.98,11.94-3.1,26.56-14.02,33.99-1.36,1.07-4.34,1.57-4.57.22-.19-1.45,1.65-2.72,2.69-3.73,4.17-3.65,6.71-8.03,8.13-13.48,1.75-6.98,1.98-14.26,3.7-21.4l.05-.24Z"/><path class="cls-12" d="M371.64,121.83l-.66-.34c-.26-.31.47-.97.61-1.29.15-.22.08.32.09.63,0,.31,0,.76,0,.95l-.04.06Z"/><path class="cls-8" d="M278.7,202.72c.48-.26.53-.12.82-.05.75.32.65,1.24.64,1.95-.08,3.68.75,7.18.72,10.75-.06.38-.22.65-.46.72-.58.16-1.1-.55-1.33-1.1-.77-1.66-.78-3.3-.71-4.95.15-2.35-.36-4.89.21-7.2l.12-.12Z"/><path class="cls-8" d="M280.75,218.55l-.82-.42.82-.42c0,.28,0,.56,0,.83Z"/><path class="cls-7" d="M248.83,137.28c.85.99.99,2.46.97,3.76-.07,2.92-.14,6.01-.15,9.01.08.94-.06,7.38-1.26,4.03-.28-.36-.69-6.03-1.18-4.06-1.03,11.2,1.07,22.97-.97,34.09-.28,1.03-.45.96-.47.33-.05-11,0-26.71-.02-38.11.11-3.67.17-5.08-3.14-7.06-3.53-2.07-7.13-3.46-10.9-4.78-5.16-1.57-10.45-1.73-15.73-2.6-3.49-.89-7.65-1.99-11.32-2.14-1.34-.13-2.95-.47-.69-.73,11.34-.38,23.19-.64,33.55,3.4,3.59,1.64,8.15,2.25,11.18,4.7l.14.15Z"/><path class="cls-2" d="M248.66,156.99c.92,5.22-.21,11.47-.22,16.89-.09,1.62-.09,3.4-.2,4.94-.13,1.19-.52,2.03-.89,1.93-.62-.25-.75-1.75-.77-2.55.07-9.17-.14-18.47-.07-27.66.18-4.13.96-2.08.99,1.55.05,1.63.68,3.15,1.11,4.65l.06.24Z"/><path class="cls-12" d="M245.73,216.88c-.01-1.78-.12-3.98.06-5.8,1.35,1,1.23,4.73,0,5.84l-.06-.04Z"/><path class="cls-14" d="M249.32,137.64v-.83c.28.07.64-.1.83,0l-.83.83Z"/><path class="cls-12" d="M229.6,219.88c1.18,1.19.99,3.33,1.05,5.13.02,3.13-.11,6.33-.34,9.46-.42,4.6-.24,9.9-5.02,11.6-2.37.65-5.95.71-7.62-1.28-1.89-2.53.65-8.38-3.84-9.09-19.22.93-38.59.32-57.88.36-2.25.25-6.57-1.48-1.98-2.49,19.79-.73,39.77,1.12,59.49-.64,2.36-.1,5.53-.78,7.16,1.25,1.14,1.59-.25,4.53.64,6.13,1.38,2.4,4.62.66,5.06-1.63,1.18-3.83.57-11.14.68-15.56.01-1.49.82-4.25,2.5-3.32l.11.08Z"/><path class="cls-7" d="M274.27,226.44c2.43,16.95,3.24,32.81,15.33,46.47,1.32,1.72.54,1.48-.83.49-9.13-6.31-11.22-17.13-13.63-27.32-1.33-6.01-2.56-12.82-1.63-18.87.2-.9.47-1.23.72-.85l.05.09Z"/><path class="cls-4" d="M286.01,241.87c.34.4.43,1.31.48,1.94.52,6.57,5.37,11.95,7.41,18.14.19.83-.23.74-.74.29-3.27-3.39-6-9.27-7.71-13.67-.53-1.36-1.88-7.26.46-6.81l.1.1Z"/><path class="cls-4" d="M286.27,240.05c-.17,0-.96.03-1.13-.03-.26-.52-.02-3.23-.1-3.68-.05-.29.26-.25.81-.26.41,0,.53.02.52.25-.02.53.03,2.97-.02,3.68l-.08.03Z"/><path class="cls-2" d="M387.5.17c.74.47,1.2,2.04,1.29,3.11.45,4.55-.96,8.95-.82,13.71.04,3.82.56,7.75-.43,11.49-1.37,4.65-2.05,11.09-.63,15.47.75,1.86,2.44,3.1,4.05,4.35,12.01,9.13,25.12,16.61,37.6,25.15,3.54,2.35,7.08,4.75,10.65,7.01,1.49,1.11,9.05,4.51,3.48,3.79-20.07-3.96-35.9-18.67-52.65-29.5-1.23-.78-2.69-1.88-4.06-1.7-2.23.28-2.75,5.98-5.18,7.71-1.74,1.03-2.4-3.29-3.05-4.66-1.07-3.2-.2-6.7.03-10,1.68-14.15,4.5-28.38,6.93-42.45.26-1.41,1.17-4.22,2.68-3.57l.11.07Z"/><path class="cls-12" d="M462.34,172.66c0-.43,0-1.39,0-2.06,0-.41,0-.59,0-.19,0,.53,0,1.77,0,2.29v-.05Z"/><path class="cls-2" d="M451.7,72.62c-.97-.44-2.48-2.25-2.41-3.33,1.26.18,1.97,2.3,2.45,3.29l-.04.04Z"/><path class="cls-12" d="M437.5,160.24c-.71-.46-.76-2.01-.88-2.92-.06-3.81-.94-10.16,1.5-12.93.13,0,.22.2.26.54.09,1.15.07,2.61.12,3.83.01,3.75.32,7.97-.93,11.43l-.08.04Z"/><path class="cls-12" d="M438.3,135.18c-1.21-.97-1.26-3.93-.1-5,.22-.13.2.45.19.91-.02,1.25.04,2.87-.03,4.04l-.06.05Z"/><path class="cls-12" d="M438.52,139.31v-.83c0,.28,0,.56,0,.83Z"/><path class="cls-4" d="M190.16,137.57c-.3-.24.39-.35,1.77-.45,3.85-.31,12.1-.98,16.78-1.35,10.49-.58,26.7,1.7,33.81,10,1.42,2.07.77,3.02-1.31,1.72-12.93-9.79-30.79-7.91-46.46-6.7-.99.08-2.51.03-3.2-.3-1.41-.61,1.52-1.34,1-1.87-.31-.33-1.89-.78-2.32-1.01l-.06-.04Z"/><path class="cls-7" d="M191.24,137.25c.77.14,4.98.7,3.01,1.54-2.51,1.22-5.4,1.2-8.19,1.14-3.2.22-7.84.21-8.43,3.4-1.95,8.77,1.28,43.07-.59,54.35-.23,1.41-.5,1.65-.65-.33-1.23-14.52-.64-29.15-.83-43.7.14-4.75-2.56-10.8.59-14.93,1.69-1.81,5.35-1.76,8.72-1.86,2.05-.03,4.09.02,6.1.35l.26.04Z"/><path class="cls-2" d="M174.71,138.46c.66,1.83-.14,5.46.4,7.83,1.3,10.28.53,20.74.51,31.11-.14,1.23-.32,1.87-.7,3.09-1.9,5.14-.44,11.22-1.01,16.65-.24,2.09-.62,1.38-.76-.46-.22-9.38.16-18.93-.05-28.25-.48-4.27-1.09-8.4-.16-12.65.53-4.01.06-8.58.06-12.77-.07-1.25.45-4.7,1.65-4.59l.06.05Z"/><path class="cls-8" d="M203.17,129.62c2.02.26,4.03.55,6.08.65,2.58,0,6.8,1.31,2.93,1.57-14.32-.31-29.23-.07-43.58.11-1.83.21-5.14-1-1.81-2.02,3.33-.49,5.21.52,9.13.26,3.09,0,7.76.01,10.34,0,5.42.08,11.09-1.06,16.64-.58l.26.03Z"/><path class="cls-8" d="M172.38,159.35c.03-3.54-.79-8.11.45-11.47.19-.37.28-.19.31.17,0,3.51.72,8.12-.72,11.31h-.04Z"/><path class="cls-6" d="M224.03,133.45c-.93.08-2.59.26-3.56-.16-1.14-.66-.39-.64.54-.66.98-.06,2.53-.2,3.06.74l-.04.08Z"/><path class="cls-12" d="M387.16,259.82c-.42.8-2.08,1.99-3.2,2.55-15.99,8.77-28.33,10.53-46.29,7.39-1.12-.21-3.64-.88-3.75-1.74.95-.98,3.16-.38,4.48-.34,3.37.39,7.8.21,11.73.25,3.99-.07,7.6.22,11.47-.33,6.76-.92,16.3-4.77,22.81-7.98.79-.42,3.34-1.18,2.81.09l-.06.12Z"/><path class="cls-15" d="M418.71,223.35c1.41-.31.43,2.71.03,3.66-6.91,15.38-16.28,24.99-29.97,32.71-1.77.73-2.74.3-1.1-1.22,12.08-7.66,22.66-18.89,28.85-32.14.48-.99,1.3-2.5,2.07-2.95l.11-.06Z"/><path class="cls-12" d="M424.22,211.8c.36,1.11-.51,2.52-.8,3.71-1.11,3.11-2.52,6.18-3.92,9.13-.44.76-.43-.09-1.06-.49-.35-.26-.72-.46-.77-.87.37-2.16,1.85-4.24,2.22-6.48.53-1.65.14-4.27,2.1-4.84.63-.16,1.54-.54,2.11-.26l.11.1Z"/><path class="cls-8" d="M334.02,267.08c.15.31.16,1.13-.12,1.4-.28.28-.96.17-1.48.2-1.97-.14-4.18-.87-5.75-1.83-.22-.42.38-1.55.83-1.54,1.7.4,4.82,1.2,6.43,1.65l.09.12Z"/><path class="cls-12" d="M331.35,269.42v-.83c.26.06.57-.06.83,0-.09.41-.43.77-.83.83Z"/><path class="cls-10" d="M346.66,156.01s-2.97-2.22-3.34-2.5c-.24-.15,1.12.5,1.27.59.9.45,1.25,1.18,2,1.84l.07.07Z"/><path class="cls-15" d="M347.53,215.38c.92.35,3.63-.98,4.17.65.19,3.11-5.86,3.39-8.11,3.41-2.48-.21-8.76-1.08-9.65-3.68-.04-1.13,2.32-.91,5.36-.92,2.44.13,6.14.05,8.09.51l.14.03Z"/><path class="cls-12" d="M347.47,215.21c.28,0,.56-.01.83,0l-.42.82-.42-.82Z"/><path class="cls-9" d="M364.43,175.19c.03.6.01,1.86,0,2.45,0-.05,0-2.13,0-2.5v.06Z"/><path class="cls-9" d="M278.42,210.19c-.1-.77-.02-1.94,0-2.42,0,.42,0,1.95,0,2.47v-.05Z"/><path class="cls-8" d="M172.67,164.93c.53.76.43,2.66.51,3.77.06,8.5-.09,17.14-.04,25.64.08.71.03,2.5.48,2.63,1.16-3.49-.47-11.63.8-15.65,1.94-2.97,1.72,14.39,1.99,15.57.15,5.62.52,11.68.46,17.5-.26,2.12.5,8.2-2.36,8.16-1.87-.61-2.1-2.88-2.2-4.67.27-17.53-.62-35.52.31-52.93h.03Z"/><path class="cls-7" d="M389.18,2.54c-.17-.51-.6-1.78-.77-2.27-.13-.26-.06-.29.18-.16.91.42.55,1.6.59,2.37v.06Z"/><path class="cls-4" d="M188.13,140.96c-1.11.12-2.49.08-3.65.06-.39-.07-1.02.13-1.28-.23,1.05-1.14,4.05-1.13,5,.11l-.08.07Z"/><path class="cls-4" d="M178.15,141.81c.24-.29.41-.74.83-.83-.16.32-.82.68-.83.83Z"/><path class="cls-2" d="M365.19,257.24c-1.84-.29-.62-2.21.08-3.1,2.31-2.93,4.31-5.64,7.79-6.96,13.7-5.88,24.3-17.04,36.52-25.36,1.73-1.01,2.33-.37,1.59,1.56-8.27,16.31-28.39,29.77-45.8,33.88l-.17-.02Z"/><path class="cls-2" d="M362.49,258.58l.83-.83c-.06.02-.33.71-.83.83Z"/><path class="cls-2" d="M361.7,256.94c.26.16-.02.82-.74.95-.56.1-1.51-.13-.97-.73.42-.4,1.04-.46,1.57-.29l.14.07Z"/></svg>